<mxfile host="app.diagrams.net" modified="2023-08-31T01:37:47.936Z" agent="Mozilla/5.0 (Windows NT 10.0; Win64; x64) AppleWebKit/537.36 (KHTML, like Gecko) Chrome/116.0.0.0 Safari/537.36 Edg/116.0.1938.62" version="21.7.1" etag="mjpJfFaWHIuo6e_uWv_0" type="github">
  <diagram name="第 1 页" id="o_RouGN3BLAgoYxDXF1j">
    <mxGraphModel>
      <root>
        <mxCell id="0" />
        <mxCell id="1" parent="0" />
      </root>
    </mxGraphModel>
  </diagram>
</mxfile>
